<?xml version="1.0" encoding="UTF-8"?>
<svg id="Layer_2" data-name="Layer 2" xmlns="http://www.w3.org/2000/svg" viewBox="0 0 648 205.95">
  <defs>
    <style>
      .cls-1 {
        letter-spacing: 2em;
      }

      .cls-2 {
        letter-spacing: 1.96em;
      }

      .cls-3, .cls-4 {
        fill: #4c8c58;
      }

      .cls-4 {
        font-family: Cairo-Bold, Cairo;
        font-size: 32.9px;
        font-weight: 700;
      }
    </style>
  </defs>
  <g id="Layer_1-2" data-name="Layer 1">
    <g>
      <path class="cls-3" d="M170,34v83.5c0,.73,2.82,5.81,3.75,6.52,8.51,6.56,20.48-2.48,24.46-10.32,5.03-9.91,5.14-54.81,3.69-67.09-.51-4.29-1.83-8.04-5.51-10.49-1.55-1.03-4.28-.39-4.37-2.11,8.76-.97,17.63-1.14,26.48-1,1.86.03,3.79.96,5.96,1.04,3.1.1,6.69-2.31,10.55-.04v85.5c0,1.87,2.53,8.37,3.99,10.01l11.01,6.49h-28.5c-1.16,0-7.63-2.14-9.19-2.81-7.37-3.22-12-12.43-9.32-20.18l-13.08,14.41c-18.39,11.29-46.63,15.41-52.47-11.36-3.72-17.07-.77-37.31-1.36-54.55-.27-7.92-1.05-20.29-8.38-24.71-2.22-1.34-6.3-1.05-5.7-3.79l48,.99Z"/>
      <path class="cls-3" d="M623.5,137c-7.74-.57-16.32-2.21-22.52-7.48-3.04-2.58-4.24-5.42-6.48-8.51-12.11,16.94-55.89,23.2-62.03-.99-8.05-31.7,39.29-34.96,59.27-42.79,1.45-.5,1.99-1.25,2.26-2.74.79-4.36.47-20.12-.11-24.89-1.47-12.13-10.84-16.6-21.91-12.13-9.58,3.87-1.16,13.83-.22,19.26,3.83,22.19-26.13,25.92-32.26,12.27-9.42-20.97,18.57-33.21,35.13-34.88,18.83-1.91,50.07,4.66,52.37,27.39,2.06,20.39-6.71,55.96,12.1,69.9l8.91,5.59c-8.01-.43-16.56.59-24.5,0ZM594,80c-10.73,1.69-21.71,5-24.94,16.56-2.91,10.43-2.89,33.51,13.21,30.21,2.87-.59,11.73-7.79,11.73-10.27v-36.5Z"/>
      <path class="cls-3" d="M437,134c.12,2.31.35,1.78-1.49,2-15.51,1.82-42.18,2.61-48.53-15-11.55,10.78-25.37,16.43-41.47,14.98-16.73-1.5-25.21-13.97-21.29-30.26,4.05-16.79,46.61-24.01,60.83-29.34-1.16-8.74,3.35-33.54-5.77-38.18-4.58-2.33-16.43-2.71-19.35,2.22-3.43,5.8,1.93,10.14,2.82,15.3,2.39,13.93-5.45,21.4-19.1,20.89s-19.45-15.52-11.65-26.12c14.97-20.35,61.04-21.4,78.94-4.95,15.41,14.16,4.31,54.76,8.5,74.5,1.58,7.46,9.82,14.49,17.56,13.95ZM385,80c-18.44,2.65-27.08,10.21-26.04,29.55.5,9.36,2.97,19.1,14.47,17.39,3.75-.56,11.57-6.95,11.57-10.44v-36.5Z"/>
      <path class="cls-3" d="M25.5,136c-16.61-2.34-15.15-22.33-14.36-34.86,33.84-11.78,30.68-53.77,65.91-64.59,12.57-3.86,31.75-4.26,37.44,10.47,2.9,7.51,3.23,23.76,3.53,32.44.44,12.42-1.82,30.09-.36,41.39.41,3.21,2.39,6.3,3.9,9.11l7.44,6.05h-57c5.48-5.06,9.33-8.44,10.04-16.46,1.28-14.38,1.81-52.27-.13-65.95-2.78-19.65-26.1-3.9-31.42,8.41-4.46,10.32-5,47.72-3.41,59.41.97,7.12,6.05,9.38,9.91,14.59-9.79-.99-22.04,1.33-31.5,0Z"/>
      <path class="cls-3" d="M475,65.5c0,1.01-2.58,2.1.99,1.5,1.63-18.06,22.12-39.43,40.71-29.21,14.17,7.79,10.07,32.68-7.46,34.94-17.75,2.29-21.52-13.81-16.24-27.73-5.52-4.12-14.81,21.21-15.71,24.78-2.85,11.33-3.71,37.02-2.21,48.62.75,5.8,3.94,10.11,8.58,13.42l8.34,4.16h-32.5c-1.63,0-10.06-2.25-11.89-3.11-4.71-2.22-5.19-4.34-5.65-9.35-2.06-22.15,2.21-47.76-.08-69.92-.59-5.73-2.13-11.54-6.94-15.05-1.9-1.39-5.01-1.68-5.93-3.57h43.5c.18,0,2.5,2.32,2.5,2.5,0,9.33,0,18.67,0,28Z"/>
      <path class="cls-3" d="M290,0v34h32l-.44,3.06-31.56.94v77.5c0,1.33,2.81,7.8,4.06,8.94,4.74,4.34,14.08,3.45,19.29.4,3.8-2.21,4.53-7.1,8.65-7.84-7.46,22.56-51.82,26.4-62.18,5.67-8.65-17.29-1.67-56.84-3.36-76.83-1.1-9.59-12.18-8.36-12.46-9.36-.54-1.89.85-1.51,2.01-1.94,5.65-2.13,11.52-2.82,17.38-5.67,11.67-5.68,20.88-15.92,23.65-28.87h2.97Z"/>
      <path class="cls-3" d="M0,33h24.5c.75,0,7.13,1.33,8.32,1.68,20.3,5.95,17.26,36.61-5.32,36.41-7.37-.07-14.42-5.86-16.07-13.01-.77-3.33-.06-6.36-.51-9.49-1.01-6.86-6.02-11.32-10.91-15.59Z"/>
    </g>
    <text class="cls-4" transform="translate(148.65 190.92)"><tspan class="cls-2" x="0" y="0">T</tspan><tspan class="cls-1" x="81.88" y="0">ALES</tspan></text>
  </g>
</svg>